<svg version="1.1" xmlns="http://www.w3.org/2000/svg" xmlns:xlink="http://www.w3.org/1999/xlink" role="img" width="465" height="109" viewbox="0 0 465 109"><title>FUSUMA</title><desc>Generated by logo.svg, https://github.com/bubkoo/logo.svg</desc><path fill="#3498db" d="M32.25 89.50L32.25 64.50L63.50 64.50L63.50 45.75L32.25 45.75L32.25 39.50L63.50 39.50L63.50 20.75L7.25 20.75L7.25 89.50L32.25 89.50M1 95.75L1 14.50L69.75 14.50L69.75 70.75L38.50 70.75L38.50 95.75L1 95.75Z"></path><path fill="#3498db" d="M138.50 89.50L138.50 20.75L113.50 20.75L113.50 64.50L107.25 64.50L107.25 20.75L82.25 20.75L82.25 89.50L138.50 89.50M76 95.75L76 14.50L144.75 14.50L144.75 95.75L76 95.75Z"></path><path fill="#3498db" d="M213.50 89.50L213.50 45.75L188.50 45.75L188.50 39.50L213.50 39.50L213.50 20.75L157.25 20.75L157.25 64.50L182.25 64.50L182.25 70.75L157.25 70.75L157.25 89.50L213.50 89.50M151 95.75L151 14.50L219.75 14.50L219.75 95.75L151 95.75Z"></path><path fill="#3498db" d="M288.50 89.50L288.50 20.75L263.50 20.75L263.50 64.50L257.25 64.50L257.25 20.75L232.25 20.75L232.25 89.50L288.50 89.50M226 95.75L226 14.50L294.75 14.50L294.75 95.75L226 95.75Z"></path><path fill="#3498db" d="M376 89.50L376 20.75L344.75 20.75L344.75 39.50L338.50 39.50L338.50 20.75L307.25 20.75L307.25 89.50L326 89.50L326 64.50L332.25 64.50L332.25 89.50L351 89.50L351 64.50L357.25 64.50L357.25 89.50L376 89.50M301 95.75L301 14.50L382.25 14.50L382.25 95.75L301 95.75Z"></path><path fill="#3498db" d="M419.75 52L419.75 33.25L426 33.25L426 52L419.75 52M451 89.50L451 20.75L394.75 20.75L394.75 89.50L419.75 89.50L419.75 64.50L426 64.50L426 89.50L451 89.50M388.50 95.75L388.50 14.50L457.25 14.50L457.25 95.75L388.50 95.75Z"></path></svg>