<svg xmlns="http://www.w3.org/2000/svg" width="465" height="109"><path fill="#2B3136" d="M32.25 89.5v-25H63.5V45.75H32.25V39.5H63.5V20.75H7.25V89.5h25M1 95.75V14.5h68.75v56.25H38.5v25H1zm137.5-6.25V20.75h-25V64.5h-6.25V20.75h-25V89.5h56.25M76 95.75V14.5h68.75v81.25H76zm137.5-6.25V45.75h-25V39.5h25V20.75h-56.25V64.5h25v6.25h-25V89.5h56.25M151 95.75V14.5h68.75v81.25H151zm137.5-6.25V20.75h-25V64.5h-6.25V20.75h-25V89.5h56.25M226 95.75V14.5h68.75v81.25H226zm150-6.25V20.75h-31.25V39.5h-6.25V20.75h-31.25V89.5H326v-25h6.25v25H351v-25h6.25v25H376m-75 6.25V14.5h81.25v81.25H301zM419.75 52V33.25H426V52h-6.25M451 89.5V20.75h-56.25V89.5h25v-25H426v25h25m-62.5 6.25V14.5h68.75v81.25H388.5z"/></svg>